<svg width="100" height="100" xmlns="http://www.w3.org/2000/svg">
    <g fill="none" fill-rule="evenodd">
        <g fill="#325492">
            <path d="M60.837 20.037C59.262 18.462 58.145 18 55.92 18H27.683c-3.103 0-4.322 1.22-4.322 4.322v56.356c0 3.103 1.22 4.322 4.322 4.322h45.523c3.103 0 4.322-1.22 4.322-4.322v-39.07c0-2.227-.463-3.343-2.038-4.918L60.837 20.037zm12.91 58.03c0 .829-.324 1.153-1.152 1.153H28.294c-.828 0-1.153-.325-1.153-1.152v-13.98h46.607v13.98zM32.555 60.53V48.166c1.045-.168 2.409-.262 3.847-.262 2.391 0 3.942.43 5.156 1.345 1.308.972 2.129 2.521 2.129 4.744 0 2.41-.878 4.072-2.092 5.1-1.327 1.101-3.344 1.624-5.809 1.624-1.476 0-2.522-.093-3.231-.187zm12.417-6.144c0-3.773 2.41-6.594 6.126-6.594 3.867 0 5.977 2.895 5.977 6.369 0 4.128-2.503 6.63-6.183 6.63-3.735 0-5.92-2.82-5.92-6.405zm20.413 4.033c.86 0 1.812-.186 2.374-.41l.429 2.222c-.524.262-1.7.542-3.232.542-4.353 0-6.594-2.708-6.594-6.295 0-4.296 3.063-6.687 6.875-6.687 1.474 0 2.596.299 3.1.56l-.578 2.26a6.16 6.16 0 0 0-2.392-.466c-2.261 0-4.017 1.363-4.017 4.165.001 2.522 1.496 4.11 4.035 4.11zm8.364-13.923H27.14V22.932c0-.828.325-1.152 1.153-1.152h28.778c.413 0 .576.163.576.576v11.202c0 3.103 1.219 4.322 4.32 4.322h11.203c.414 0 .577.163.577.576v6.04z" fill-rule="nonzero" />
            <path d="M54.069 54.255c0-2.26-1.084-4.203-3.045-4.203-1.924 0-3.044 1.831-3.044 4.277 0 2.466 1.158 4.203 3.063 4.203 1.923 0 3.026-1.831 3.026-4.277zM36.7 50.09c-.636 0-1.047.055-1.29.111v8.237c.243.056.636.056.99.056 2.578.02 4.26-1.4 4.26-4.408.019-2.615-1.513-3.997-3.96-3.997z" />
        </g>
    </g>
</svg>