<svg width="100" height="100" xmlns="http://www.w3.org/2000/svg">
    <g fill="none" fill-rule="evenodd">
        <g fill="#325492">
            <path d="M32.562 50.09c-.58 0-.955.055-1.176.111v8.237c.221.056.58.056.904.056 2.353.02 3.888-1.4 3.888-4.408.017-2.615-1.381-3.997-3.616-3.997zM48.416 54.255c0-2.26-.988-4.203-2.779-4.203-1.756 0-2.779 1.831-2.779 4.277 0 2.466 1.057 4.203 2.796 4.203 1.757 0 2.762-1.831 2.762-4.277z" />
            <path d="M60.837 20.037C59.262 18.462 58.145 18 55.92 18H27.683c-3.103 0-4.322 1.22-4.322 4.322v56.356c0 3.103 1.22 4.322 4.322 4.322h45.522c3.104 0 4.322-1.22 4.322-4.322v-39.07c0-2.227-.463-3.343-2.037-4.918L60.837 20.037zm12.91 58.03c0 .829-.324 1.153-1.152 1.153H28.294c-.828 0-1.153-.325-1.153-1.152v-13.98h46.606v13.98zM28.778 60.53V48.166c.956-.168 2.2-.262 3.513-.262 2.182 0 3.597.43 4.706 1.345 1.193.972 1.943 2.521 1.943 4.744 0 2.41-.8 4.072-1.91 5.1-1.211 1.102-3.052 1.625-5.302 1.625-1.347 0-2.301-.094-2.95-.188zm11.336-6.145c0-3.773 2.2-6.593 5.593-6.593 3.53 0 5.456 2.895 5.456 6.369 0 4.127-2.286 6.63-5.643 6.63-3.41 0-5.406-2.82-5.406-6.406zm18.633 4.034c.785 0 1.654-.186 2.166-.41l.392 2.222c-.478.262-1.552.542-2.95.542-3.972 0-6.019-2.708-6.019-6.295 0-4.296 2.797-6.687 6.275-6.687 1.347 0 2.37.299 2.83.56l-.527 2.26a5.201 5.201 0 0 0-2.182-.466c-2.063 0-3.666 1.363-3.666 4.165-.001 2.522 1.362 4.11 3.681 4.11zm3.58-10.421h2.983l1.006 2.297c.34.766.597 1.383.87 2.092h.033c.273-.803.495-1.363.785-2.092l.972-2.297h2.966l-3.239 6.145 3.41 6.444H69.11l-1.04-2.28c-.425-.877-.7-1.53-1.023-2.259h-.034c-.239.729-.528 1.382-.887 2.26l-.954 2.279h-2.966l3.324-6.37-3.205-6.22zm11.422-3.502H27.14V22.932c0-.828.324-1.152 1.153-1.152h28.778c.413 0 .576.163.576.576v11.202c0 3.103 1.219 4.322 4.32 4.322h11.203c.414 0 .577.163.577.576v6.04z" fill-rule="nonzero" />
        </g>
    </g>
</svg>