<svg width="100" height="100" xmlns="http://www.w3.org/2000/svg">
    <g fill="none" fill-rule="evenodd">
        <g fill="#C144D6">
            <path d="M55.296 51.823c0-1.168-.81-1.865-2.242-1.865-.584 0-.98.057-1.187.113v3.75c.245.055.546.074.96.074 1.527 0 2.469-.771 2.469-2.072z" />
            <path d="M60.837 20.037C59.262 18.462 58.145 18 55.92 18H27.683c-3.103 0-4.322 1.22-4.322 4.322v56.356c0 3.104 1.22 4.322 4.322 4.322h45.523c3.103 0 4.322-1.22 4.322-4.322v-39.07c0-2.227-.462-3.343-2.038-4.918L60.837 20.037zm12.91 58.03c0 .829-.325 1.153-1.152 1.153H28.294c-.828 0-1.153-.324-1.153-1.152v-13.98h46.607v13.98zM32.804 60.585l.81-12.698h3.823l1.244 4.239c.396 1.47.792 3.053 1.073 4.54h.057c.359-1.47.791-3.145 1.207-4.559l1.356-4.22h3.749l.697 12.698h-2.807l-.19-4.86a143.367 143.367 0 0 1-.112-5.219h-.054a69.352 69.352 0 0 1-1.414 4.918l-1.545 4.954h-2.242l-1.357-4.917a58.012 58.012 0 0 1-1.149-4.955h-.038c-.075 1.715-.132 3.674-.226 5.256l-.226 4.823h-2.656zm16.219 0V48.055c.885-.15 2.129-.263 3.88-.263 1.772 0 3.035.34 3.883 1.017.81.64 1.356 1.696 1.356 2.939s-.415 2.299-1.168 3.015c-.98.923-2.43 1.338-4.126 1.338-.377 0-.716-.019-.98-.057v4.54h-2.845zm13.62-5.444h-1.169v-2.054h1.112c.961-.02 2.185-.377 2.185-1.412 0-.736-.602-1.282-1.808-1.282-.999 0-2.053.433-2.563.734l-.584-2.072c.736-.47 2.205-.923 3.787-.923 2.619 0 4.07 1.375 4.07 3.053 0 1.3-.736 2.317-2.242 2.844v.038c1.469.264 2.656 1.375 2.656 2.977 0 2.167-1.902 3.749-5.01 3.749-1.584 0-2.921-.415-3.638-.866l.585-2.149c.509.264 1.677.753 2.845.753 1.488 0 2.242-.715 2.242-1.638 0-1.206-1.206-1.752-2.469-1.752zm11.106-10.644H27.14V22.932c0-.828.325-1.152 1.153-1.152h28.778c.413 0 .576.163.576.576v11.202c0 3.103 1.219 4.322 4.32 4.322h11.203c.414 0 .577.163.577.576v6.04z" fill-rule="nonzero" />
        </g>
    </g>
</svg>