<svg width="100" height="100" xmlns="http://www.w3.org/2000/svg">
    <g fill="none" fill-rule="evenodd">
        <g fill="#D66">
            <path d="M48.606 50.009c-.644 0-1.06.056-1.305.114v8.358c.246.056.643.056 1.002.056 2.61.019 4.312-1.422 4.312-4.474.019-2.652-1.532-4.054-4.009-4.054zM39.716 51.847c0-1.175-.813-1.876-2.25-1.876-.587 0-.984.057-1.192.114v3.771c.245.056.548.075.964.075 1.532 0 2.478-.777 2.478-2.084z" />
            <path d="M59.763 20.037C58.19 18.462 57.076 18 54.854 18h-28.18c-3.097 0-4.314 1.22-4.314 4.322v56.356c0 3.103 1.217 4.322 4.314 4.322h45.433c3.097 0 4.313-1.22 4.313-4.322v-39.07c0-2.227-.462-3.343-2.033-4.918L59.763 20.037zm12.885 58.03c0 .829-.325 1.153-1.15 1.153H27.282c-.826 0-1.15-.325-1.15-1.152v-13.98h46.515v13.98zM33.418 60.66V48.056c.889-.152 2.137-.265 3.896-.265 1.778 0 3.045.341 3.896 1.022.813.645 1.362 1.707 1.362 2.957 0 1.251-.416 2.313-1.172 3.032-.984.929-2.44 1.345-4.143 1.345-.378 0-.719-.019-.983-.057v4.568h-2.856zm10.989-.058V48.057c1.059-.17 2.439-.265 3.896-.265 2.42 0 3.99.436 5.22 1.364 1.324.986 2.156 2.558 2.156 4.814 0 2.444-.89 4.131-2.119 5.174-1.342 1.118-3.385 1.648-5.882 1.648-1.493 0-2.553-.095-3.271-.19zm20.635-7.43v2.35h-4.578v5.138H57.57V47.886h7.792v2.37h-4.898v2.918h4.578v-.001zm7.606-8.676H26.133V22.932c0-.828.324-1.152 1.15-1.152h28.721c.413 0 .576.163.576.576v11.202c0 3.103 1.216 4.322 4.312 4.322h11.18c.413 0 .576.163.576.576v6.04z" fill-rule="nonzero" />
        </g>
    </g>
</svg>