<svg xmlns="http://www.w3.org/2000/svg" xmlns:xlink="http://www.w3.org/1999/xlink" width="140" height="140" version="1.1" style=""><rect id="backgroundrect" width="100%" height="100%" x="0" y="0" fill="none" stroke="none"/>
    
<g class="currentLayer" style=""><title>Layer 1</title><g id="icons8-google-docs-filled" fill="#ececec" class="" fill-opacity="1">
        <path d="M105.414062,49.585938 L82.414062,26.585938 C82.039062,26.210938 81.53125,26 81,26 L44.984376,26 C41.132812,26 38,29.125 38,32.960938 L38,109.804688 C38,114.320312 41.6875,118 46.226562,118 L97.773438,118 C102.3125,118 106,114.320312 106,109.804688 L106,51 C106,50.46875 105.789062,49.960938 105.414062,49.585938 zM74,98 L56,98 L56,94 L74,94 L74,98 zM88,90 L56,90 L56,86 L88,86 L88,90 zM88,82 L56,82 L56,78 L88,78 L88,82 zM88,74 L56,74 L56,70 L88,70 L88,74 zM85.335938,50 C83.492188,50 82,48.507812 82,46.664062 L82,31.828126 L100.171876,50 L85.335938,50 z" id="Shape" fill="#ececec"/>
    </g></g></svg>