<svg width="100" height="100" xmlns="http://www.w3.org/2000/svg">
    <g fill-rule="nonzero" fill="none">
        <path d="M60.837 20.037C59.262 18.462 58.145 18 55.92 18H27.683c-3.103 0-4.322 1.22-4.322 4.322v56.356c0 3.103 1.22 4.322 4.322 4.322h45.523c3.103 0 4.322-1.22 4.322-4.322v-39.07c0-2.227-.462-3.343-2.038-4.918L60.837 20.037zm12.91 58.03c0 .829-.325 1.153-1.152 1.153H28.294c-.828 0-1.153-.325-1.153-1.152v-13.98h46.607v13.98zM35.51 47.998h3.273l1.104 2.3c.375.769.654 1.385.954 2.096h.037c.3-.805.542-1.366.86-2.095l1.066-2.3h3.254l-3.553 6.154 3.741 6.453h-3.291l-1.141-2.282c-.467-.879-.768-1.533-1.123-2.263h-.038c-.262.73-.58 1.384-.973 2.263l-1.047 2.282h-3.255l3.648-6.378-3.516-6.23zM55.654 58.21v2.395h-7.875V47.998h2.862V58.21h5.013zm4.824-2.9c-2.095-.729-3.46-1.889-3.46-3.722 0-2.15 1.794-3.796 4.769-3.796 1.421 0 2.468.3 3.217.636l-.636 2.3a6 6 0 0 0-2.637-.599c-1.235 0-1.834.562-1.834 1.217 0 .804.71 1.159 2.338 1.776 2.226.823 3.274 1.984 3.274 3.76 0 2.114-1.628 3.91-5.088 3.91-1.44 0-2.862-.374-3.573-.767l.58-2.357c.768.393 1.946.786 3.162.786 1.31 0 2.001-.543 2.001-1.366 0-.786-.598-1.234-2.113-1.777zm13.27-10.814H27.14V22.932c0-.828.325-1.152 1.153-1.152h28.778c.413 0 .576.163.576.576v11.202c0 3.103 1.219 4.322 4.32 4.322h11.203c.414 0 .577.163.577.576v6.04z" fill="#397048" />
    </g>
</svg>