<svg width="100" height="100" xmlns="http://www.w3.org/2000/svg">
    <g fill-rule="nonzero" fill="none">
        <path d="M60.837 20.037C59.262 18.462 58.145 18 55.92 18H27.683c-3.103 0-4.322 1.22-4.322 4.322v56.356c0 3.103 1.22 4.322 4.322 4.322h45.522c3.104 0 4.322-1.22 4.322-4.322v-39.07c0-2.227-.463-3.343-2.037-4.918L60.837 20.037zm12.91 58.03c0 .829-.324 1.153-1.152 1.153H28.294c-.828 0-1.153-.325-1.153-1.152v-13.98h46.606v13.98zM29.99 47.998h3.208l1.083 2.3c.367.769.643 1.385.935 2.096h.037c.293-.805.532-1.366.844-2.095l1.045-2.3h3.191l-3.484 6.154 3.668 6.453h-3.228l-1.119-2.282c-.458-.879-.753-1.533-1.1-2.263h-.037c-.256.73-.57 1.384-.954 2.263l-1.027 2.282h-3.19l3.576-6.378-3.448-6.23zM49.739 58.21v2.395h-7.72V47.998h2.805V58.21h4.915zm4.73-2.9c-2.054-.729-3.393-1.889-3.393-3.722 0-2.15 1.76-3.796 4.678-3.796 1.393 0 2.42.3 3.153.636l-.623 2.3a5.792 5.792 0 0 0-2.586-.599c-1.21 0-1.797.562-1.797 1.217 0 .804.697 1.159 2.293 1.776 2.183.823 3.21 1.984 3.21 3.76 0 2.114-1.597 3.91-4.99 3.91-1.411 0-2.806-.374-3.502-.767l.568-2.357c.752.393 1.908.786 3.1.786 1.284 0 1.961-.543 1.961-1.366 0-.786-.587-1.234-2.072-1.777zm6.032-7.313h3.21l1.082 2.3c.367.769.642 1.385.934 2.096h.037c.294-.805.532-1.366.844-2.095l1.046-2.3h3.19l-3.484 6.154 3.668 6.453h-3.229l-1.118-2.282c-.458-.879-.752-1.533-1.1-2.263h-.037c-.257.73-.568 1.384-.953 2.263l-1.027 2.282h-3.191l3.576-6.378-3.448-6.23zm13.247-3.5H27.14V22.931c0-.828.324-1.152 1.153-1.152h28.778c.413 0 .576.163.576.576v11.202c0 3.103 1.219 4.322 4.32 4.322h11.203c.414 0 .577.163.577.576v6.04z" fill="#397048" />
    </g>
</svg>