<svg width="100" height="100" xmlns="http://www.w3.org/2000/svg">
    <g fill="none" fill-rule="evenodd">
        <g fill="#FACB57">
            <path d="M60.837 20.037C59.262 18.462 58.145 18 55.92 18H27.683c-3.103 0-4.322 1.22-4.322 4.322v56.356c0 3.103 1.22 4.322 4.322 4.322h45.522c3.104 0 4.322-1.22 4.322-4.322v-39.07c0-2.227-.463-3.343-2.037-4.918L60.837 20.037zm12.91 58.03c0 .829-.324 1.153-1.152 1.153H28.294c-.828 0-1.153-.325-1.153-1.152v-13.98h46.606v13.98zM37.725 50.3v-2.412h9.361v1.685l-6.01 8.73v.076h6.107v2.413H37.15v-1.57l6.144-8.846V50.3h-5.57zm11.293 10.492V47.888h2.93v12.904h-2.93zm5.456 0V48.06c.9-.154 2.163-.268 3.944-.268 1.8 0 3.083.344 3.944 1.034.823.65 1.378 1.722 1.378 2.986 0 1.264-.42 2.336-1.187 3.064-.995.938-2.47 1.36-4.193 1.36a7.37 7.37 0 0 1-.996-.058v4.614h-2.89zm19.275-16.296H27.14V22.932c0-.828.324-1.152 1.153-1.152h28.778c.413 0 .576.163.576.576v11.202c0 3.103 1.219 4.322 4.32 4.322h11.203c.414 0 .577.163.577.576v6.04z" fill-rule="nonzero" />
            <path d="M60.848 51.889c0-1.188-.823-1.896-2.277-1.896-.594 0-.996.058-1.208.116v3.81c.25.057.556.076.978.076 1.55 0 2.507-.785 2.507-2.106z" />
        </g>
    </g>
</svg>