<?xml version="1.0" encoding="UTF-8"?>
<svg width="32px" height="32px" viewBox="0 0 32 32" version="1.1" xmlns="http://www.w3.org/2000/svg" xmlns:xlink="http://www.w3.org/1999/xlink">
    <!-- Generator: Sketch 55.1 (78136) - https://sketchapp.com -->
    <title>logo</title>
    <desc>Created with Sketch.</desc>
    <defs>
        <polygon id="path-1" points="0 0 32 0 32 32 0 32"></polygon>
        <polygon id="path-3" points="0 0 32 0 32 32 0 32"></polygon>
    </defs>
    <g id="Page-1" stroke="none" stroke-width="1" fill="none" fill-rule="evenodd">
        <g id="logo">
            <g id="Clipped">
                <mask id="mask-2" fill="white">
                    <use xlink:href="#path-1"></use>
                </mask>
                <g id="a"></g>
                <polygon id="Path" fill="#00A1DC" fill-rule="nonzero" mask="url(#mask-2)" points="3.5 4.5 27.5 4.5 27.5 27.5 3.5 27.5"></polygon>
            </g>
            <g id="Clipped">
                <mask id="mask-4" fill="white">
                    <use xlink:href="#path-3"></use>
                </mask>
                <g id="a"></g>
                <path d="M24.572,23.647 C24.5996278,23.6203829 24.6154021,23.5837811 24.6157782,23.5454194 C24.6161543,23.5070577 24.6011006,23.4701536 24.574,23.443 L23.359,22.226 C23.3069578,22.1751505 23.2241122,22.1742691 23.171,22.224 C22.831,22.521 22.4,22.684 21.944,22.684 C21.1884097,22.6810931 20.5084795,22.2246979 20.2195889,21.5265092 C19.9306983,20.8283205 20.0893678,20.0249367 20.622,19.489 C21.298,18.815 22.452,18.782 23.172,19.402 C23.2252389,19.4508194 23.3073545,19.449502 23.359,19.399 L24.576,18.181 C24.6031006,18.1538464 24.6181543,18.1169423 24.6177851,18.0785806 C24.6174021,18.0402189 24.6016278,18.0036171 24.574,17.977 C23.8605407,17.3108324 22.9201132,16.9414553 21.944,16.9439869 C20.9174896,16.9416561 19.9326837,17.3499815 19.209,18.078 C17.7024996,19.5894664 17.7038416,22.0351879 19.212,23.545 C19.9343936,24.2728685 20.9185089,24.6806352 21.944,24.6770241 C22.928,24.6770241 23.856,24.313 24.572,23.647 Z M13.818,14.043 C13.8457617,14.0165183 13.8617177,13.9799916 13.8622973,13.9416291 C13.862846,13.9032667 13.847971,13.8662866 13.821,13.839 L12.602,12.623 C12.5503545,12.572498 12.4682389,12.5711806 12.415,12.62 C11.698,13.236 10.54,13.207 9.865,12.531 C9.51389429,12.1796127 9.31738471,11.702735 9.319,11.206 C9.319,10.706 9.514,10.236 9.866,9.885 C10.5606254,9.19126357 11.6731765,9.15198165 12.415,9.795 C12.47,9.843 12.551,9.845 12.602,9.792 L13.821,8.575 C13.847971,8.54771338 13.862846,8.51073331 13.8622973,8.47237086 C13.8617177,8.4340084 13.8457617,8.39748172 13.818,8.371 C12.2929228,6.95993606 9.92586621,7.00451423 8.455,8.472 C7.72674408,9.19503391 7.31865355,10.1797819 7.32197958,11.206 C7.31868066,12.2323095 7.72633729,13.2172396 8.454,13.941 C9.17762035,14.6691129 10.1624676,15.0774554 11.189,15.0750149 C12.1649578,15.0777153 13.1053319,14.7087168 13.819,14.043 L13.818,14.043 Z M8.832,24.582 L24.581,8.83 C24.6350168,8.77544174 24.6350168,8.68755826 24.581,8.633 L23.365,7.417 C23.3105619,7.36364 23.2234381,7.36364 23.169,7.417 L7.42,23.168 C7.36598325,23.2225583 7.36598325,23.3104417 7.42,23.365 L8.635,24.582 C8.68955826,24.6360168 8.77744174,24.6360168 8.832,24.582 L8.832,24.582 Z M1.892,3.552 C2.7623969,2.2416513 4.12049031,1.33361536 5.664,1.03 C12.4771915,-0.335917122 19.4930438,-0.343053615 26.309,1.009 C27.0724685,1.16151148 27.7987568,1.4618103 28.447,1.893 C29.7576546,2.7619944 30.6656068,4.11978088 30.968,5.663 C32.3351658,12.477282 32.3436616,19.4944275 30.993,26.312 L30.987,26.309 C30.5261831,28.6647515 28.6860566,30.5076446 26.331,30.972 C19.5186475,32.3365324 12.5039839,32.3433289 5.689,30.992 C4.92517923,30.8401043 4.1987126,30.539392 3.551,30.107 C2.2406487,29.2363393 1.33291438,27.8777984 1.03,26.334 C-0.335657481,19.521185 -0.343473452,12.5058411 1.007,5.69 C1.1583664,4.926329 1.45912541,4.20008946 1.892,3.553 L1.892,3.552 Z" id="Shape" fill="#FFFFFF" fill-rule="nonzero" mask="url(#mask-4)"></path>
            </g>
        </g>
    </g>
</svg>