<svg xmlns="http://www.w3.org/2000/svg" xmlns:xlink="http://www.w3.org/1999/xlink" width="32" height="32" viewBox="0 0 32 32">
    <defs>
        <path id="a" d="M0 0h32v32H0z"/>
    </defs>
    <g fill="none" fill-rule="evenodd">
        <mask id="b" fill="#fff">
            <use xlink:href="#a"/>
        </mask>
        <path fill="#FFF" stroke="#ECECEC" d="M3.5 4.5h24v23h-24z" mask="url(#b)"/>
        <path fill="#00A1DC" fill-rule="nonzero" d="M24.572 23.647a.143.143 0 0 0 .002-.204l-1.215-1.217a.136.136 0 0 0-.188-.002c-.34.297-.771.46-1.227.46a1.874 1.874 0 0 1-1.322-3.195c.676-.674 1.83-.707 2.55-.087a.136.136 0 0 0 .187-.003l1.217-1.218a.143.143 0 0 0-.002-.204 3.839 3.839 0 0 0-2.63-1.033 3.844 3.844 0 0 0-2.735 1.134 3.87 3.87 0 0 0 .003 5.467 3.83 3.83 0 0 0 2.732 1.132c.984 0 1.912-.364 2.628-1.03zm-10.754-9.604a.143.143 0 0 0 .003-.204l-1.219-1.216a.136.136 0 0 0-.187-.003c-.717.616-1.875.587-2.55-.089a1.866 1.866 0 0 1-.546-1.325c0-.5.195-.97.547-1.321a1.872 1.872 0 0 1 2.549-.09c.055.048.136.05.187-.003l1.219-1.217a.143.143 0 0 0-.003-.204 3.871 3.871 0 0 0-5.363.101 3.835 3.835 0 0 0-1.133 2.734 3.84 3.84 0 0 0 1.132 2.735 3.843 3.843 0 0 0 2.735 1.134 3.84 3.84 0 0 0 2.63-1.032zM8.832 24.582L24.581 8.83a.14.14 0 0 0 0-.197l-1.216-1.216a.14.14 0 0 0-.196 0L7.42 23.168a.14.14 0 0 0 0 .197l1.215 1.217a.14.14 0 0 0 .197 0zm-6.94-21.03A5.894 5.894 0 0 1 5.664 1.03a52.781 52.781 0 0 1 20.645-.021 5.973 5.973 0 0 1 2.138.884 5.88 5.88 0 0 1 2.521 3.77 52.804 52.804 0 0 1 .025 20.649l-.006-.003a5.909 5.909 0 0 1-4.656 4.663 52.806 52.806 0 0 1-20.642.02 5.936 5.936 0 0 1-2.138-.885 5.892 5.892 0 0 1-2.521-3.773A52.811 52.811 0 0 1 1.007 5.69a5.91 5.91 0 0 1 .885-2.137z" mask="url(#b)"/>
    </g>
</svg>
